<?xml version="1.0" encoding="UTF-8"?><svg id="Capa_2" xmlns="http://www.w3.org/2000/svg" viewBox="0 0 429.6 467.53"><defs><style>.cls-1{fill:#000;}.cls-1,.cls-2,.cls-3{stroke-width:0px;}.cls-2{fill:#ff33d6;}.cls-3{fill:#fff;}</style></defs><g id="Capa_1-2"><path class="cls-3" d="M115.14,103.87l-9.47,7.01-16.57,18.22-5.09,7.1-48.03,87.73-15.76,22.47-3.22,5.33c-4.01,6.64-3.68,15.02.83,21.33l2.48,3.46,2.89,14.91v18.5l-3.73,42.98-.22,10.79,26.75,38.55,33.06,16.44,14.59,9.94,32.14,7.3,36.93,23.16,9.82-6.58,9.38-9.79,50.9,5.6,33.6-15.53,36.73-23.64,27.86-27.92,21.49-40.41,12.15-31.45,13.67-15.44v-20.03l-27.8-69.99s10.57-6.55,1.61-40.41c-13.78-52.04-31.62-43.57-31.62-43.57l-45.87-46.27-21.29-7.51c-4.56-1.61-9.44-2.13-14.24-1.51l-4.26.55-14.22,9.25-76.16,17.66-7.15-1.15-12.24,6.62c-3.46,1.87-6.78,3.98-9.93,6.32Z"/><path class="cls-2" d="M18.84,355.29c7.41,0,33.63,17.68,34.2,16.88,3.4,10.27,30.43,12.31,38.79,13.46,42,5.79,27.38-.56,16.61-29.77-5.92-16.05-37.35-98.88-23.17-116.89-2.72-3.22-3.06-26.32,1.21-25-1.31-9.04-20.59,7.14-24.9,7.89,4.06-.71-28.3,30.44-51,49.02.18.79.49,1.61.66,2.39.53-1.03,1.01-2.08,1.59-3.07.24-.42.67-.73,1.05-1.06.11-.1.47-.12.5-.07.21.41.53.85.52,1.27-.19,4.44-.19,4.57,3.12,5.89-.02.08-.04.15-.04.24,0,.15.1.37.18.56-.18,1.13-.14,1.44-.24,1.57-1.8,2.18-2.82-.67-4.2-.64-1.48.03-2.94.71-4.42,1.03-.04,0-.31-.8-.39-1.25-.44-2.35-2.29-1.1-3.52-1.28-.25-.04-1.09,1.28-.94,1.51,1.17,1.77,1.48,3.06-1.23,3.34.89.87,1.78,1.73,2.67,2.6,0-.25-.06-.7,0-.72,2.12-.64,5.88.66,5.88,2.4,0,2.44,1.72,3.35,2.84,4.87.32.44.32,1.54-.01,1.93-.36.43-1.32.62-1.95.5-4.49-.82-5.47-.19-7.08,5.1-1.19-.03-2.7.47-4.2.97-.66,1.22,2.87,1.96.38,3.39.8.7,1.55,1.93,2.42,2.02,2.94.3,3.18.61,1.72,3.63,2.05-.53,3.21.78,4.37,2.11-1.67.81-.24,4.08-3.19,3.98-.38-.01-.78.93-1.18,1.44.5.4,1.5.94,1.43,1.17-1.06,3.56-2.09,7.14-3.51,10.57-.47,1.14-1.56,1.91-.36,3.12.14.14.43.18.66.19,1.88.15,1.82-1.13,1.78-2.42-.02-.48-.11-1.22.15-1.4.54-.38,1.39-.78,1.92-.6.45.15,1.03,1.49.88,1.65-3.09,3.19-.27,5.12,1.95,5.22,4.46.19,4.36,2.71,4.13,5.74-.32,4.22,1.68.95,2.72.88.45-.03.95.13,1.34.34.1.05-.11.66-.17,1.02-.45,2.32-2.5,3.01-4.1,4.24-.68.53-.65,1.98-.94,3.01.86-.09,1.91.1,2.52-.34,1.22-.87,1.61-.66,1.63.73.02,1,0,2,0,3.01-1.43-.18-2.98-.07-4.26-.62-.96-.41-1.44-1.28-1.79.42-.21,1.01-1.21,2.24-.89,2.89.9,1.83,3.65,2.63,5.95,2.13.1-.56.45-.91.99-1.07.26-.08.56-.12.91-.12Z"/><path class="cls-2" d="M316.87,404.39c-.26.61-.42,1.31-.81,1.82-.37.49-1.05,1.17-1.49,1.1-2.39-.37-1.69,1.62-1.38,2.23.43.87,1.8,2.04,2.45,1.87,1.36-.36,2.51-1.51,3.66-2.28-.71-1.5-1.2-2.53-1.71-3.56-.21-.41-.48-.79-.72-1.19Z"/><path class="cls-2" d="M300.95,80.99c-.27-.71-.87-1.36-1.49-1.81-.15-.1-1.35.7-1.35,1.08,0,.71.54,1.41,1.1,2.65.98-1.05,1.84-1.67,1.74-1.92Z"/><path class="cls-2" d="M285.98,428.46c.06,1.79,1.74,1.99,2.3,1.26,1.05-1.35,1.88-3.32-.8-4.27-.23,1.14.75,2.88-1.51,3.01Z"/><path class="cls-2" d="M346.25,373.49c-.57.7-1.12,1.44-1.51,2.25-.13.28.26.81.42,1.23.34-.15.74-.22,1.01-.46.66-.59,1.27-1.26,1.73-1.73-.35-.92-.5-1.34-.66-1.75-.34.15-.79.2-1,.46Z"/><path class="cls-2" d="M270.92,67.82c-.17-.17-.37-.5-.49-.47-.36.08-.68.3-1.01.47.17.17.34.33.54.54.32-.17.64-.36.97-.54Z"/><path class="cls-2" d="M317.32,85.63c.03-.12-.3-.33-.47-.49-.18.33-.36.65-.54.97.2.2.37.37.54.54.17-.34.39-.66.47-1.01Z"/><path class="cls-2" d="M322.12,90.4c-.33-.17-.66-.39-1.01-.47-.12-.03-.33.3-.49.47.33.18.65.36.97.54.2-.2.37-.37.54-.54Z"/><path class="cls-2" d="M329.43,99.65c-.17-.32-.36-.64-.54-.97-.17.17-.5.37-.47.5.08.35.3.68.47,1.01.17-.17.34-.33.54-.54Z"/><path class="cls-2" d="M370.3,320.87c.22.22.45.45.67.67.23-.3.49-.58.67-.91.03-.06-.29-.3-.46-.48-.29.24-.58.47-.88.71Z"/><path class="cls-2" d="M366.07,333.1c-.03.12.3.33.47.49.18-.33.36-.65.53-.97-.2-.2-.37-.37-.53-.54-.17.33-.39.66-.47,1.01Z"/><path class="cls-2" d="M39.63,184.38c.3-.23.6-.46.89-.7v-.67c-.39.14-.83.22-1.14.46-.09.07.16.59.25.91Z"/><path class="cls-2" d="M44.76,179.5c-.08-.35-.3-.68-.47-1.01-.17.17-.5.37-.47.49.08.35.3.68.47,1.01.17-.17.5-.37.47-.49Z"/><path class="cls-2" d="M58.31,163.93c.03-.12-.3-.33-.47-.49-.18.33-.36.65-.53.97.2.2.37.37.53.54.17-.33.39-.66.47-1.01Z"/><path class="cls-2" d="M338.68,386.97c.3.23.58.49.91.67.06.03.3-.29.48-.46-.24-.29-.47-.58-.71-.88-.22.22-.45.45-.67.67Z"/><path class="cls-2" d="M23.96,222.91c-.33-.17-.66-.39-1.01-.47-.12-.03-.33.3-.49.47.33.18.65.36.97.54.2-.2.37-.37.54-.54Z"/><path class="cls-2" d="M60.24,159.53c.23.3.46.59.7.89h.67c-.14-.39-.22-.83-.46-1.14-.07-.09-.59.16-.91.25Z"/><path class="cls-2" d="M295.29,425.94c.08.35.3.68.47,1.01.17-.17.33-.34.53-.54-.17-.32-.36-.64-.53-.97-.17.17-.5.37-.47.49Z"/><path class="cls-2" d="M64.75,147.48c.23.3.46.59.7.89h.67c-.14-.39-.22-.83-.46-1.14-.07-.09-.59.16-.91.25Z"/><path class="cls-2" d="M82.68,439c-.5.5-1,1-1.51,1.51-1.91-.14-1.71-1.33-1.19-2.55.28-.66,1.93-1.13.21-1.96-.98-.48-2.43-1.49-2.94-1.16-1.4.91-.45,2,.38,3.04.19.23-.58,1.54-1.18,2.01-1.28,1.01-2.8,1.71-4.06,2.75-.31.25-.09,1.34.14,1.94.1.27,1.05.56,1.23.41,2.63-2.28,5.08-1.41,7.83-.08,1.03.49,3.04,0,3.99-.79.61-.51.12-2.36.12-3.61h-3.01v-1.51Z"/><path class="cls-2" d="M302.54,419.42c-.02-.05-.04-.09-.06-.15-.09.03-.19.03-.28.15h.34Z"/><path class="cls-2" d="M322.12,97.18c-.05.02-.1.04-.15.06.04.09.04.19.15.28v-.34Z"/><path class="cls-2" d="M92.59,443.89c-.73-.58-2.54.19-3.86.36.32.83.41,1.93,1,2.45,1.19,1.03,2.63,1.79,4.03,2.54.15.08.75-.68,1.08-1-.79-1.65-1.15-3.47-2.26-4.35Z"/><path class="cls-2" d="M101.95,401.8c.58-5.87-4.22.79-4.91-2.11-9.55,8.63-64.29-20.06-71.55-28.93-3.05-3.73-5.15-6.63-6.53-8.89-1.14,1.17-1.76,2.47.44,4.47.25.23.03.96.03,1.46l1.51,7.86c.5,1.29,1.35,2.56,1.43,3.87.13,2.31.37,2.43,2.26.97,1.55-1.19,3.24.77,3.38,1.76.29,1.96-1.72.54-2.56,1.03-.54.32-1.36.72-1.44,1.19-.31,1.8.97,1.83,2.3,1.84.67,0,1.33.37,2,.56-.43.53-.78,1.16-1.3,1.56-.54.4-1.22.7-1.89.83-2.82.57,2.19,2.95-.81,3.42.09,2.13,1.74,1,2.56,1,.53,0,1.28-1.03,1.55-1.74.37-1.01-.5-2.64,1.56-2.66.3,1.86-1.17,4.41,2.47,4.9,1.05.14,1.02,2.16-.6,2.58-1.36.34-2.55.27-.82,1.9.82.78,1.31,1.91,1.97,2.86,1.39,2,2.63,4.24,6.09,3.58-.02.02-.04.02-.07.04.23.23.52.68.68.65-.52,3.1.56,4.54,3.49,4.61,3.58.08.37,1.5.43,2.33.05.74.68,1.97,1.19,2.04,1.79.25,2.54-1.24,2.1-3.37-.16-.78.22-1.67.35-2.52.68.43,1.4.78,2.37.74-.03.02-.04.03-.07.05.22.22.45.45.67.67.04-.05.07-.09.1-.14.54,1.18,1.38,1.96,2.69,2.21-.15.07-.28.14-.45.24.19.19.41.49.58.58-.51,1.86-.24,3.41-2.52,3.1-2.08-.28-3.02.99-3.91,2.46,1.17.19,2.37.31,3.52.6.89.22,2.09.41,2.53,1.04,1.37,1.96,3.2,1.96,5.26,1.99,2.94.04,2.72,1.41,1.11,3.2-1.58,1.74.01,2.74,1.1,3.56.59.44,2.41.34,2.42.31.56-4.05,4.83-3.12,6.95-5.1.68-.64,2.65-.09,3.95.22.62.15,1.08,1,1.61,1.53-.86.15-1.86.64-2.53.35-.8-.35-.99-.91-2.22-.27-4,2.07-5.43,5-4.25,10.21.08.34.72.88.84.82,1.25-.63,2.89-1.1,3.53-2.16.72-1.17-.09-2.34-1.84-2.24-.12,0-.52-1.18-.4-1.27,1.17-.85,3.68.19,3.83,1.59.11.99-.14,2.04.09,2.99.12.5.89,1.17,1.38,1.18.51.02,1.3-.56,1.5-1.07.26-.65-.19-1.61.11-2.21.79-1.52,1.78-3.01,3.9-2.66,2.12.36,3.6,1.35,3.58,3.76,0,1.25,0,2.51,0,3.76,1.14.23,2.88-.75,3.01,1.51,2.07-.31,3.96,1.81,6.28.1,1.31-.96,2.8.36,3.68,1.62.79,1.13,1.4,2.4,2.09,3.61.36.63.72,1.25,1.08,1.88.17-.68.23-1.4.54-2.01,1.42-2.87,3.06,2.06,4.74-.08.29-.37,1.1.07,1.12,1.35.02,1.75.26,2.92,2.4,2.58,1.52-.24,2.3.32,2.2,1.99-.07,1.17-.26,2.86,1.61,2.43,1.26-.3,3.28-.77,2.03-3.24-.21-.42,1.41-1.77,2.18-2.69.56.58,1.65,1.2,1.6,1.73-.19,2.35.78,3.18,2.97,2.78,2.05-.38,5.42,1.23,5.91-1.04.62-2.88,3.18-1.85,3.37-5.05.12.07.23.14.35.2,1.3,5.19.52,8.3,2.32,11.39,1.14,1.95.99,2.13,2.43.65.52-.53,1.77-1.22,2.03-1.01,1.85,1.49,2.89,1.74,3.48-1.11.1-.47,3.23-1.12,3.78-.55,1.4,1.46.58,2.58-1.51,2.6-.26,0-.51.58-.76.89.42.19.85.56,1.26.54.94-.05,2-.05,2.77-.49,1.42-.8,2.04-2.51,4.22-2.59,3.98-.15-.08,2.4,1.11,2.81,1.1.39,2.97-.01,3.39.65,1.03,1.62,1.24,3.72,3.35.77,1.3-1.81,2.83-2.24,3.32.78.06.38.51.71.78,1.06.23-.4.55-.78.68-1.21.27-.87.45-1.77.72-2.63-14.55-20.32-33.85-50.94-34.56-58.91-6.33,6.02-19.16,1.81-26.69,1.51Z"/><path class="cls-2" d="M168.16,466.45c.18.43.68.72,1.03,1.07.03-.03.06-.06.09-.09-.5-.66-1.02-1.34-1.55-2.05.14.36.27.72.43,1.07Z"/><path class="cls-2" d="M20.18,250.75s.04-.02.06-.04c6.37-3.72,12.24-6.74,15.87-8.83-1.96-1.46-3.86-1.73-5.91-2.98,6.05-8.91,19.59-18.39,26.41-23.78-1.34-2.2,17.15-13.7,26.72-23.29.18-.18.35-.35.52-.53,4.43-4.56,6.69-8.63,3.61-10.98.32-5.65.2-20.19,5.74-24.72-2.62-6.02,5.55-9.99,3.03-15.99,4.18-6.11,4.85-14.9,7.06-22.39l.79-2.39c.96-2.64,2.23-5.03,4.02-7-1.08.76-2.98,2.74-3.03-1.07-.71.34-1.71.49-2.07,1.06-.92,1.43,2.42,3.18-.18,4.74l-2.2,2.77c-.59-.55-1.21-1.6-1.55-1.5-2.87.83.49,1.76.11,2.11-1.03.91-2.99,1.21-3.45,2.25-1.14,2.6-2.7,3.32-5.46,3.24-1.34-.04-4.77.64-1.66,3.52-.83.68-1.55,1.72-2.49,1.97-2.04.54-2.34.64-1.71,1.25,1.92,1.87,1.25,4.02,1.03,6.16-3.18.68-4.12,5.37-7.53,4.84-2.29-.35-4.19,2.49-6.4.37-.02-.02-.74.45-.83.78-.12.43-.12,1.2.14,1.38.55.37,1.3.62,1.97.62,1.35,0,2.81.12,2.3,1.85-.81,2.74-1.74-.7-2.23-.16-.92,1.02-1.87,2.29-2.09,3.58-.16.93,1.39,2.87,1.25,2.97-1.85,1.23-1.93-1.29-3.11-1.64-.9-.26-1.85-.37-2.78-.54-.95,1.97,2.4,5.58-2.34,6.1.08.48.12,1.35.23,1.36,1.03.09,2.16-.03,3.69-.55.11.13.22.25.33.37-1.64,3.25-4.6,3.28-6.44,4.76,1.03,4.24-5.88,6.31-3.01,11.04-1.83.76-3.64,2.08-5.5,2.17-3.61.17-3.93.35-5.15,3.57-.59,1.56-1.02,2.68.02,4.12.08.12-1.13,1.66-1.59,1.59-1.34-.21-2.58-1.1-3.92-1.31-.56-.08-1.28.91-1.93,1.41.96.71,1.91,1.41,2.87,2.12-.76.35-1.9.51-2.19,1.1-.5,1.01-.17,2.52-.8,3.37-.39.53-1.89.24-2.9.32.77,2.69-1.24,4-2.68,5.65-.34.39-.08,1.31-.09,1.99.53-.19,1.14-.27,1.58-.59,1.37-.98,2.46-.34,3.04.78.63,1.21.87,2.65,1.07,4.02.03.18-1.19.83-1.76.74-.62-.1-1.1-.88-1.73-1.21-.81-.42-1.02-2.5-2.68-.83-1.11,1.12-.87,1.57-.06,2.77.66.98.92,3.45-1.7,1.23-.29-.25-2.36,3.84-1.92,3.92,1.72.31,3.43,2.26,5.63-.25.05.05.11.11.16.16-.37,1.88.08,3.63-2.28,3.26-1.82-.28-3.56-1.05-5.37-1.4-.48-.09-1.1.52-1.65.8,2.91,1.38-2.44,4.38,1.16,5.84.69.28.39.87-1.67,1.23-.77.14-1.75.76-2.01,1.41-.19.48.49,1.54,1.05,2.03.83.71,2.77,1.26,2.71,1.68-.29,2.3-2.02,4.3-1.44,6.88.06.26-.93.77-.6,2.34-.96-4.73-.98-4.97-2.38-4.84-2.62.24-1.23-3.11-3.16-3.27-.42-.03-1.24.32-1.26.53-.1,1.73.02,3.48-.09,5.21-.06.9-.38,2.53-.72,2.57-4.22.47-1.91,2.79-1.51,4.68.39,1.86.59,3.76.71,5.66.04.57-.49,1.18-.77,1.78-.35-.35-.68-.73-1.06-1.05-1.04-.89-1.91-2.77-3.52-1.59-.68.5-.35,2.25-.66,3.38-.55,2.03.63,3.52,2.03,5.51-.06.06-.12.12-.18.17-1.29-.35-2.43-.49-2.48-.32-.42,1.59-.91,3.27-.78,4.87.04.47.19.75.4.91,3.09-2.08,6.24-4.04,9.3-5.82Z"/><path class="cls-2" d="M287.21,317.74c5.62-41.45,6.19-80.56-3.57-121-2.47-10.24-9.24-52.92-21.08-60.22-11.05-6.81-29.46,11.06-41.98,3.82-3.4,5.13-10.39-.12-13.87,4.78-6.93-1.84-63.78,16.47-65.35,25.09-40.52,16.65-44.27,34.62-40.42,81.83,2.16,26.58,7.03,54.85,16.13,79.83,4.07,11.17,16.12,30.47,15.58,42.59,4.53,1.05,3.31,4.65,3.4,7.67-1.31,20.55,77.72-13.31,84.26-6.64,3.79-8.56,23.86-11.79,32.94-16.28-.1.05,24.27-14.65,23.08-13.32,9.37-10.44,2.57-18.67,10.87-28.14Z"/><path class="cls-2" d="M381.54,294.64c-1.7,1.64-2.48,1.45-2.15-.93.12-.83.66-1.6,1.08-2.39-22.08,20.45-70.15,48.98-74.85,54.08-4.23,4.58-31.46,50.54-26.67,53.69-2.76,10.65-6.72,12.45-11.52,21.91,1.64.38,3.28.76,4.93,1.12-2.38,4.28-4.22,8-5.88,11.51.51.15.99.58,1.41,1.51.09.2.99.04,1.51.04-.91-2.89,2.8-1.54,2.94-3.13.13-1.56.62-2.5,2.12-1.99.53.18.86,1.56.92,2.41.14,2.12,1.04,2.67,2.76,1.49.81-.56,1.41-1.62,1.8.25.22,1.04.18,3.04,1.54.43.35-.68,1.07-1.33,1.77-1.63,1.38-.59,1.61-1.21.04-1.49-2.15-.39-2.27-1.16-1.3-2.92,1.35-2.47,2.65-.28,3.97-.15.23-1.14-.75-2.88,1.51-3.01.34-2.88,2.91-.72,4.06-1.79,1.57-1.46,4.43-1.98,3.54-5.2-.11-.4.73-1.06,1.12-1.61.25.91,2.11.78,1.12,2.72-1.13,2.23.29,3.7,2.37,2.78,1.15-.51,1.91-1.92,2.51-2.92-.57-.3-.8-.6-1.03-.89.32-.09.84-.34.91-.25.21.27.29.65.4.99,1.11-.38,2.6,4.08,3.31-.36.22-1.36.79-5,4.63-4.16,1.46.32,1.55-1.46.62-2.63-.46-.58-.98-1.16-1.59-1.57-.68-.46-1.48-.73-2.23-1.08.92-.2,1.87-.3,2.74-.62,1.08-.4,2.09-.98,3.13-1.48-.35-1.1-.64-2.22-1.06-3.3-.82-2.1-.4-2.93,1.55-2.7.9.11,1.74.63,2.64.82.83.18,2.35.45,2.45.2,1.88-4.42,4.39-3.02,7.3-1.17.49.31,2.01-.89,2.97-1.52.15-.1,0-1.11-.3-1.33-.53-.39-1.27-.5-1.92-.72.58-.28,1.14-.64,1.75-.82q5.67-1.6,5.7-6.83c0-1.74,0-3.49-.33-5.23-.57-.3-.8-.59-1.03-.89.32-.09.84-.34.91-.25.24.31.32.75.46,1.14h-.34c1.84.5,3.35,1,4.85,1.51.02-2.05,1.64-1.19,2.65-1.56.71-.26,1.78-1,1.78-1.53,0-3.41.15-6.92-.59-10.21-.48-2.16.96-3.14,1.35-4.7,1.03.48,2.16.81,3.06,1.46,1.18.86,2.11,2.08,3.31,2.91.34.23,1.26-.38,1.92-.6-2.5-1-.63-3.66-1.94-5.1-.5-.55-1.05-1.06-1.58-1.59-3.11,3.37-1.88-1.51-3.15-1.7-.21-.03-.32-.66-.48-1.01.43-.15,1.22-.5,1.25-.43,1.29,2.4,5.64-.33,6.05,3.57.01.11,1.35.21,1.35.19.58-3.26,1.09-6.54,1.6-9.81,1-.36,2.03-.68,2.98-1.14.12-.06-.11-.86-.18-1.32-.52.15-1.04.29-1.55.46-.43.14-.84.33-1.26.5.22-1.64-.1-3.19.91-4.92,1.11-1.91,2.81-3.93,2.13-6.63-.73-2.89.37-4.81,3.18-6.17.86-.42,1.21-2.52,1.24-3.86.06-2.28-.06-4.3,2.98-4.78.64-.1,1.08-1.47,1.28-2.25-.57-.3-.8-.59-1.03-.89.32-.09.84-.34.91-.25.24.31.32.75.46,1.14h-.34c.93.35,1.81,1.14,2.08.97,1.49-.93,2.84-2.1,4.24-3.18-.36-.26-.72-.52-1.07-.79-.64-.5-1.27-1-1.9-1.51-3.23.1.36-5.5-3.85-4.63-.03,0-.33-.94-.27-.97.82-.42,1.9-.54,2.5-1.14,1.2-1.22,1.5.11,2.17.52,1.19.73,2.55,1.27,3.58,2.17.87.77,1.21.99,2.21.09,1.38-1.22.73-1.8-.2-2.74-.7-.72-3.34-1.89.29-2.42.96-.14,1.8-1.5,2.56-2.42.21-.26.03-.97-.16-1.38-.08-.17-.69-.21-1.01-.13-1.12.3-2.21.9-3.33.97-2.05.13-1.37-1.58-1.46-2.66-.15-1.78,1.39-2.47,2.25-1.63,2.48,2.42,3.41-1.46,5.27-.98-.19-.67-.17-1.59-.61-1.96-.69-.59-1.52,2.53-2.33.2-.55-1.57.7-1.79,2.13-2.05,1.41-.25.31-3.72,3.14-3.04.07.02.79-1.68.63-1.8-.65-.48-1.99-1.14-2.25-.88Z"/><path class="cls-2" d="M260.74,86.65c-2.08-.24-3.97-1.4-6-1.02,2.1,7.31,21.47,38.58,26.67,38.58,11.83-.79,24.07-1.36,36.21,1.14,2.91-1.55,11.24-.95,20.92.65.4.07.8.13,1.21.2,3,.52,6.11,1.13,9.22,1.79-.3-.46-.67-1.25-1.35-2.84-3.92-.64-2.8-5.94-6.43-6.97-.46-.13-.57-1.52-.84-2.32.67-.2,1.52-.76,1.97-.53,1.19.61,2.06,2.54,3.55.77.14-.17-1.62-2.13-2.7-3-.34-.27-1.88.62-1.99.45-.96-1.58-4.2-.18-4.02-3.14.09-1.5.21-3.04-.03-4.5-.44-2.72-3.45.09-4.21-1.74-.54-1.31-.73-3.54-2.53-2.24-2.53,1.82-4.16-1.31-6.28-.48.03-.35-.04-.76.11-1.06,1.11-2.28-.71-2.59-2.1-2.86-.3.57-.6.8-.89,1.03-.09-.32-.34-.84-.25-.91.27-.21.64-.29.99-.4-.44-1.14,4.14-2.81-.34-3.1-.89-.06-1.77-.47-2.61-.82-2.42-1.03-2.49-1.11-.66-3.62.97-1.34.34-1.58-.8-1.52-.92.05-2.56.17-2.63.53-.8,3.77-2.29,2.89-4.23.87-.62-.64-1.51-1.11-2.37-1.38-.64-.2-1.82-.22-2.07.15-.49.71-.91,1.94-.61,2.62.67,1.5,1.73,2.88,3.57,4.81-.22.09-.43.42-.65.63-2.57-.04-4.38.38-6.16.74-.36.07-.82-.37-1.24-.58.54-.29,1.06-.68,1.64-.87,1.39-.45,1.65-.87.12-1.54-.46-.2-1.86-5.03-1.64-5.48.1-.21.49-.51.5-.49,3.8,3.45,1.63-2.96,3.75-2.26-1.42-.76-2.77-1.94-4.28-2.18-1.89-.31-4.4-.55-5.73.42-2.2,1.61-4.32.59-6.43.92-.39.06-.9-.61-1.36-.94,1.71-.2.25-3.69,2.62-2.77,1.23.48,2.69,1.31,3-.01.47-2.02.58-2.85,2.27-.89.53-.93,1.14-1.84,1.56-2.82.19-.44.04-1.03.05-1.55-.5.01-1.25-.19-1.45.06-1.93,2.43-3.65-.51-5.6-.21-1.82.28-.98-1.78-1.18-2.86-.53-2.94-2.79-1.06-4.21-1.45-.47-.13-1.15.49-1.73.77.86.36,1.74.65,2.56,1.09.42.22.76.66,1.07,1.05.24.31.37.7.55,1.05-.43.16-1.16.57-1.26.45-1.36-1.61-4.79-.65-4.66-4.36.08-2.16-.99-2.2-2.63.3-.23-.11-.63-.26-1.04-.39-.1-.03-.26.16-.43.36-3.2-.32-5.02-2.07-7.02-1.78-1.1.16-1.54,2.48-2.48-.56-.81-2.65-3.32-4.6-6.87-4.18-1.42.17-3.74-1.58-4.31-1.04-2.46,2.33-2.55-1.01-3.8-1.22-.47-.08-1.03.09-1.49.29.36.39.71.76,1.07,1.09-2.65,8.65,7.31,15.11,8.45,22.08Z"/><path class="cls-2" d="M377.88,207.14c-.09.34.29.81.46,1.23.53-.23,1.07-.46,1.3-.56-.48-1.15-.65-1.56-.82-1.98-.33.43-.81.82-.94,1.31Z"/><path class="cls-2" d="M368.8,183.01c.5-.35,1.28-.6,1.43-1.06.17-.53-.22-1.23-.52-2.56-.48,1.17-.77,1.68-.89,2.22-.1.44-.02.93-.02,1.4Z"/><path class="cls-2" d="M382.18,237.82c.03-.06-.29-.3-.46-.48-.29.24-.58.47-.88.71.22.22.45.45.67.67.23-.3.49-.58.67-.91Z"/><path class="cls-2" d="M386.65,233.67c-.17-.32-.36-.64-.53-.97-.17.17-.5.37-.47.49.08.36.3.68.47,1.01.17-.17.33-.34.53-.54Z"/><path class="cls-2" d="M379.17,198.67c.03-.06-.29-.3-.46-.48-.29.24-.58.47-.88.71.22.22.45.45.67.67.23-.3.49-.58.67-.91Z"/><path class="cls-2" d="M380.01,223.67c.23-.3.49-.58.67-.91.03-.06-.29-.3-.46-.48-.29.24-.58.47-.88.71.22.22.45.45.67.67Z"/><path class="cls-2" d="M367.9,184.38c.3-.23.59-.46.89-.7v-.67c-.39.14-.83.22-1.14.46-.09.07.16.59.25.91Z"/><path class="cls-2" d="M367.29,170.21c.33.18.65.36.97.54.2-.2.37-.37.54-.54-.33-.17-.66-.39-1.01-.47-.12-.03-.33.3-.49.47Z"/><path class="cls-2" d="M368.63,165.54c.03-.06-.29-.3-.46-.48-.29.24-.58.47-.87.71.22.22.45.45.67.67.23-.3.49-.58.67-.91Z"/><path class="cls-2" d="M368.51,158.42c-.08-.36-.3-.68-.47-1.01-.17.17-.33.33-.54.54.18.32.36.64.54.97.17-.17.5-.37.47-.49Z"/><path class="cls-2" d="M359.16,146.7c.06.03.3-.29.48-.46-.24-.29-.47-.58-.71-.88-.22.22-.45.45-.67.67.3.23.58.49.91.67Z"/><path class="cls-2" d="M383.53,240.24c-1.07-.22-2.66.55-2.68-1.52-.5,0-1,0-1.51.34-.3.57-.6.8-.89,1.03-.09-.32-.34-.84-.25-.91.31-.24.75-.32,1.14-.46v.34c.56-2.76-1.3-4.37-2.23-6.17-1.09-2.11-1.51-3.19,1.41-3.26.02,0,.23-1.26-.02-1.44-1.13-.82-2.39-1.47-3.6-2.18,1.48-.53,2.96-1.05,4.42-1.62.08-.03,0-.47,0-.72-.96-.71-1.91-1.41-2.87-2.12,1.27-1.12.22-2.07.11-3.21-.23-2.26-1.71-1.89-2.78-2.59-.39-.25-.4-1.3-.33-1.95.03-.26.76-.64,1.16-.63.95.01,1.95.06,2.82.4.71.27,1.38,1.87,1.8-.05.11-.5-.94-1.81-1.43-1.8-2.09.08-3.32-.28-3.04-2.79.15-1.43.24-3.1-.35-4.32-.6-1.22-1.62-1.6.57-2.15,1.12-.28,1.9-1.88,2.84-2.89-4.63,1.15-7.56-2.13-10.95-4.2-.41-.25-.71-.69-1.06-1.04.62-.26,1.25-.76,1.85-.73.9.05,1.77.53,2.67.7.46.09,1.16.07,1.41-.21.23-.24.18-1.09-.08-1.38-3.01-3.32-7.46-2.35-11.15-3.69-3.37,3.91-1.54-2.19-3.16-1.64-.3-2.81,1.8-.99,2.71-1.29,1.12-.37,2.56.12,3.59-.36.75-.35,1.65-2.26,1.47-2.44-1.99-1.96-.39-3.08.85-4.22,2.02-1.85.91-1.91-.96-2.24-.74-.13-1.81-2.37-1.76-2.41,2.16-1.7.05-4.43,1.51-6.15.65-.77,1.67-1.23,2.52-1.82-1.3-1.55-2.67-3.06-3.88-4.67-.81-1.07,1.66-2.8-.62-3.73-.09-.03-.02-.47,0-.72,0-.24-.05-.62.07-.7.3-.19.68-.29,1.04-.35,1.87-.31,2.36-.72,1.67-1.29-.83-.69-2.5-1.04-2.62-1.74-.16-.92.95-2.01,1.3-3.09.22-.68.15-1.51-.02-2.21-.06-.24-.85-.31-1.31-.45-.32,4.3-3.41.83-3.95,1.31-1.97,1.74-2.38-.13-3.34-.8.88-.88,1.76-1.75,2.64-2.63.18-.93.29-1.88.56-2.78.02-.05.06-.09.09-.13-.87-.14-1.76-.3-2.66-.47-.67-.12-1.34-.25-2.03-.39-1.27-.25-2.56-.53-3.87-.82-.77-.17-1.53-.34-2.31-.52-14.56-3.34-31.12-8.04-42.59-6.19,1.23,7.43-16.83-2.3-20.64,2.2-6.1,7.21,2.49,12.56,2.5,16.55.02,7.55,6.8,35.28,12.98,38.59-4.02,5.67,8.38,16.95,2.14,20.18,14.82,14.21,8.91,100.9-3.86,116.98,7.39,2.7,21.51-6.46,36.53-18.15,5.95-4.63,12.02-9.64,17.89-14.49,0,0,0,0,0,0,9.52-7.87,18.44-15.24,25.25-19.7-.72-.78.19-1.37,2.29-2.86.54-.38,1.31-.49,1.76-.93.23-.23.1-.98-.08-1.4-.09-.21-.91-.37-.98-.28-1.27,1.94-2.07.3-2.6-.5-.26-.38.29-1.4.62-2.05.21-.42.63-.79,1.04-1.06,1.14-.75,2.33-1.43,3.49-2.13-.98-1.09-2.68-2.11-2.8-3.29-.24-2.35-1.61-1.89-2.81-1.6l-.29-1.28c0-.73,0-1.41-.07-2.04-.22-2.05.15-3.18,2.69-3.16,1.06.01,2.13-1.47,3.2-2.27-1.23-.85-1.48-1.73-.06-2.65-.89-.53-1.81-1.01-2.66-1.6-1.43-.98-2.01-2.02-.11-3.2.62-.39,1.01-1.15,1.64-1.52.28-.16,1.08.09,1.31.4.54.74.84,1.65,1.33,2.43.24.38.69.63,1.04.93.23-.66.59-1.3.66-1.97.23-2.4-1.18-3.53-3.32-3.97Z"/><path class="cls-2" d="M202.35,460.13c-.66.04-1.31.29-1.97.46.19.33.36.93.57.94.66.04,1.33-.14,2.15-.26-.34-.55-.56-1.16-.74-1.15Z"/><path class="cls-2" d="M222.73,457.82c.34.17.66.39,1.01.47.12.03.33-.3.49-.47-.33-.18-.66-.36-.97-.54-.2.2-.37.37-.54.54Z"/><path class="cls-2" d="M176.66,459.94c.3-.23.6-.46.89-.7v-.67c-.39.14-.83.22-1.14.45-.09.07.16.6.25.91Z"/><path class="cls-2" d="M257.68,447.35c.39.04,1.09-.11,1.13-.28.23-.78.42-1.58.61-2.37-.37-.3-.84-.48-1.45-.48,0,.44-.09,1.7-.29,3.13Z"/><path class="cls-2" d="M217.8,389.09c-.12.04-.24.08-.36.11-3.04.95-5.62,1.75-7.52,2.33-12.77,3.93-61.81,3.74-66.68,13.43-3.81,7.57,15.39,30.42,27.52,48.99.03,0,.06.02.09.02,1.7.08,3.68,2.58,5.18-.55.43-.91,1.67-1.43,2.54-2.13,0,1.34.13,2.69-.04,4-.14,1.11-.63,2.18-.97,3.27.78-.47,1.56-.95,2.35-1.42.43,1.99,1.65,3.18,3.6,3.71.04.01-.05,1.46-.45,1.91-.9,1.02-1.65,1.97-.34,3.04.14.11,1.42-1,2.03-1.67.7-.78,1.07-1.9,1.86-2.52,1.89-1.49,2.45-1.19,3,1.25.18.78-.18,2.14,1.45,1.05,3.15-2.1,3.25-5.17,3.14-8.51-.06-1.8,1.53-1.8,2.53-.88.59.54,2.51.83,1.18,2.64-.63.86-.56,2.26-.71,3.42,0,.05,1.07.47,1.33.28,1.78-1.28,6.78-3.54,7.68-2.91,3,2.07,4.82-.96,7.21-1.37.67-4.16,2.78-2.94,5.17-1.52.6.36,1.68-.02,2.53-.17.87-.15,1.73-.67,2.56-.6,1.05.1,2.07.63,3.1.97.16-1.19.2-2.4.51-3.55.21-.78.92-2.14,1.21-2.09,2.57.44,4.59-1.19,6.91-1.61,2.09-.37,2.67.75,2.36,2.55-.11.67-.45,1.31-.73,1.95-1.32,3.08,3.14.41,2.64,2.66.37-.6,1.12-1.24,1.06-1.8-.32-3.19.84-5.46,3.06-7.84,2.05-2.19,3.51-5,6.87-4.97.98,0,1.5-.22,1.79-.58,2.27-22.88,19.35-66.61,25.62-73.64-4.22,4.74-41.14,16.74-60.28,22.74Z"/><path class="cls-2" d="M252.21,444.45c0-.28,0-.56,0-.85-.08,0-.12.01-.21,0,.07.28.14.57.2.85Z"/><path class="cls-2" d="M2.87,289.97c.15.42.36.83.53,1.24,1.84-1.67,3.68-3.33,5.53-5.01-.76-.76-1.24-1.33-1.81-1.78-.34-.27-.82-.35-1.24-.52-.28,2.38-4.13,2.99-3.01,6.07Z"/><path class="cls-2" d="M2.9,317.17c.03.4.35.78.54,1.18.84-.68,1.68-1.36,2.61-2.11-.36-.29-.59-.66-.87-.69-1.19-.12-2.43-.13-2.28,1.62Z"/><path class="cls-2" d="M0,298.07c.23.3.46.59.7.89h.67c-.14-.39-.22-.83-.46-1.14-.07-.09-.6.16-.91.25Z"/><path class="cls-2" d="M5.88,307.99c-.39.14-.83.22-1.14.45-.09.07.16.6.25.91.3-.23.59-.46.89-.7v-.67Z"/><path class="cls-2" d="M11.37,344.35c-.32.17-.64.36-.97.54.17.17.37.5.49.47.35-.08.68-.3,1.01-.47-.17-.17-.33-.34-.54-.54Z"/><path class="cls-2" d="M14.17,359.19c-.18.33-.36.65-.54.97.2.2.37.37.54.54.17-.34.39-.66.47-1.01.03-.12-.3-.33-.47-.49Z"/><path class="cls-2" d="M143.55,86.52c.29-.52.67-1.02.84-1.57.14-.44.03-.95.03-1.44s.09-.99-.02-1.44c-.13-.51-.46-.97-.7-1.45-.26.61-.66,1.2-.75,1.83-.13.95-.1,1.93,0,2.88.04.41.39.79.6,1.19Z"/><path class="cls-2" d="M209.76,63.54c-.95-.48-1.48-.95-1.99-.93-.5.02-.98.53-1.47.83.66.66,1.32,1.33,1.99,1.99.35-.45.7-.89,1.48-1.88Z"/><path class="cls-2" d="M209.87,62.5c.75-.2,1.47-.55,2.19-.84-.38-.21-.76-.42-1.34-.73-.45.27-1,.59-1.54.91.23.23.53.7.69.66Z"/><path class="cls-2" d="M198.47,61.64c.03-.06-.29-.3-.46-.48-.29.24-.58.47-.88.71.22.22.45.45.67.67.23-.3.49-.58.67-.91Z"/><path class="cls-2" d="M224.73,62.26c.36-.08.68-.3,1.01-.47-.17-.17-.37-.5-.49-.47-.36.08-.68.3-1.01.47.17.17.37.5.49.47Z"/><path class="cls-2" d="M171.25,68.07c-.08-.35-.3-.68-.47-1.01-.17.17-.33.34-.53.54.17.32.36.64.53.97.17-.17.5-.37.47-.49Z"/><path class="cls-2" d="M135.53,87.25c.23.3.46.59.7.89h.67c-.14-.39-.22-.83-.46-1.14-.07-.09-.59.16-.91.25Z"/><path class="cls-2" d="M104.28,156.93c3.68,1.7-1.24,10.37,5.33,13.69,2.46,1.24,14.6-6.53,18.98-7.9,10.51-3.28,27.13-11.81,38.84-16.24,15.17-5.74,29.56-14.62,47.68-17.89,8.03-1.45,38.65.26,42.75-4.44,7.05-8.08-15.93-38.38-21.82-56.27-.11-.32-.2-.63-.3-.94-.57-1.88-.92-3.6-1.01-5.14-1.91-1.41-2.32-1.18-1.18,3.32-.17-.18-.33-.36-.52-.52-.33-.29-.84-.37-1.27-.55v1.09c-1.65-.32-2.35,1.14-3.4-.73-1.06.82-2.03,1.83-3.21,2.41-1.22.6-2.1.34-2.49-1.41-.79-3.56-1.17-3.74-3.59-1.31-1.55,1.55-2.16,1.1-3.31-.15-.43-.46-1.37-.44-2.07-.65v2.25c-1.65.04-3.89-.39-2.69,2.49.43,1.03,2.02,2-.45,1.95-1.27-.02-3.3-1.55-3.64-1.17-1.44,1.59-3.11,1.23-4.76,1.23-3.3,0-1.06-1.1-.59-2.28.78-1.96-.27-3.13-2.52-3.78-.72-.21-1.28-.96-1.92-1.46-2.33-.03-4.45-.74-7.03-.23-4.75.94.93,2.46-.49,3.24-.5.4-1.13.71-1.48,1.21-1.25,1.76-5.19,3.12-6.51,2.03-1.08-.89-1.91-2.46-3.22-.31-1.75-2.39-2.65-.26-3.72.72-.92.85-1.83,1.73-2.66,2.66-1.15,1.29-2.07,1.56-3.73.43-.89-.61-3.2.74-3.99.11-3-2.39-3.07.11-3.73,1.85-.36-.39-.96-.73-1.03-1.17-.2-1.18-.56-2.03-1.5-.62-.75,1.13-.93,2.63-1.59,3.84-.89,1.66-2.74,2.07-4.31,2.13-2.63.09-4.77.43-7.71,2.16,2.58.28,2.53.27,2.25,1.53-.3,1.36-.87,2.8-.67,4.1.41,2.71-2.91,1.16-3.12,3.04-.07.64-.49,1.23-.75,1.85-.24-.64-.44-1.29-.74-1.9-1.05-2.19-3.02-.64-4.51-1.08-.58.46-1.23.86-1.71,1.39,2.54,8.21-26.78,30.13-20.61,42.48-7.61,3.11-4.59,20.14-10.29,24.92Z"/><path class="cls-1" d="M335.29,186.86c0-1.45-.33-3,.09-4.31.42-1.29.63-2.19,0-3.52-.49-1.04-.1-2.49-.1-3.76,0-1.45-.06-2.9.01-4.34.29-5.81-2.14-11.26-2.18-17.02-2.84-4.02-2.81-8.97-4.22-13.45-.49-1.55-2.29-2.1-2.2-3.4.13-1.83-.68-2.34-2.09-2.94-.98-.42-.96-1.81-1.42-2.6-.67-1.15.04-3.14-2.28-3.58-2.4-.45-3.5-2.35-3.02-4.93.22-1.16-.4-1.68-1.53-1.48-2.63.47-3.9-1.27-4.95-3.16-.98-1.75-1.3-4.41-2.73-5.23-1.93-1.11-3.29-2.64-4.77-4.08-1.06-1.04-1.56.79-1.89.26-.42-.67-.4-1.67-.39-2.53.02-2.01-.47-1.26-1.65-.62-1.38.75-2.1-.94-2.93-1.76-.68-.68-.93-1.83-1.67-2.39-.76-.57-1.86-.88-2.84-.93-1.92-.11-4.19-.11-5.34-1.4-1.63-1.83-3.98.03-5.36-1.7-.18-.23-.61-.36-.92-.36-2.45.04-4.82-.11-7.18-1.03-1.41-.55-3.79.17-4.49-.69-.8-.99-.2-3.09-.27-4.71-.03-.69-.15-1.37-.3-2.05-.32-1.46-.17-1.72,1.03-1.05.91.51,1.53,1.18,1.42-.44-.12-1.73.65-1.85,2.13-2.12,1.77-.32,3.33,2.86,5.06.19.63,4.05,4.74.68,6.31,2.98.84,1.23,2.39-2.02,3.32.17.79,1.88,2.64.6,3.76,1.5.91.73,2.03,1.69,3.05,1.68,1.68-.02,2.61.78,3.7,1.75.32.28,1.47-.41,1.82-.13.61.49.86,1.43,1.36,2.1.16.22.67.29.99.25,5.31-.81,7.56-.4,12.15,2.26,2.4,1.39,4.37-.56,6.18-1.32,1.31-.55,3.52-1.34,3.91-3.55.08-.44.72-1.11,1.11-1.11,5.4-.01,7.79-5.33,12.28-6.9.32-1.71,3.92-1.06,2.77-3.85-.03-.06.21-.31.37-.37,1.1-.4,2.26-.69,3.31-1.18,1.27-.6-.75-2.8,1.27-3.01,1.33-.14,1.36-.86,1.27-1.79-.11-1.16.77-1.13,1.44-1.63,1.14-.85,3.83-.77,2.99-3.47-.02-.08,1.06-.72,1.63-.72,1.13,0,1.51-.35,1.59-1.52.18-2.63,2.27-4.1,4.27-4.9,1.45-.57,2.81-.13,1.18-2.12-.14-.18.24-.99.57-1.32,1.52-1.52,3.35-2.83,2.67-5.44-.07-.25.3-.88.38-.87,3.39.69,2.91-3.22,5.08-4.34,2.14-1.1,3.41-3.87,5.1-5.87,1.25-1.49,2.91-2.83,1.36-5.06,1.87-1.78.16-4.86,2.51-6.65.58-.45,3.05-2.63-.18-3.65.16-.26.34-.5.47-.77,1.07-2.25-.27-5.72,3.39-6.65-.2-.29-.38-.83-.59-.84-1.31-.05-1.51-.85-1.06-1.74.14-.27,1.17-.19,1.77-.1.29.04.51.66.78.67.48.02.97-.22,1.46-.36-.16-.26-.26-.59-.49-.75-.55-.38-1.16-.68-1.74-1.02-.29-.17-.58-.35-.87-.53.28-.19.54-.51.83-.53.9-.07,1.81.02,2.71-.05.26-.02.49-.37.74-.57-.29-.16-.57-.4-.89-.47-.34-.08-.72.02-1.08-.03-.33-.04-.65-.17-.97-.26.21-.38.31-.96.63-1.12,1.62-.8,2.65-1.76,2.4-3.85-.34-2.85,1.8.79,2.13-.72.32-1.49.66-2.98,1.1-4.43.79-2.62,1.48-2.94,5.01-2.67.46.04,1.06-.17,1.41-.47.84-.72,1.52-.3,1.11.46-1.83,3.38-.78,6.97-.99,10.45-.12,2.09-.74,1.49-1.63.49-.13.6-.4,1.2-.35,1.78.07.76.55,1.49.57,2.24.02.99-2.64.84-1.2,2.75.34.45-.41,1.72-.69,2.61-.15.48-.2,1.12-.54,1.38-.79.62-1.9.91-2.51,1.65-.23.28.92,2,.82,2.05-2.03,1.24-1.43,4.25-3.03,5.24-2.97,1.83-1.7,5.22-3.43,7.36,1.57,1.64-.09,2.43-.76,3.68-.77,1.44-2.18,3.07-1.35,4.81,1.04,2.19-2.66,4.13-.11,6.21-4.42,2.06-.93,6.26-2.48,9.16-1.69,3.16-.57,6.67-.64,10.01-.03,1.86-1.07,3.54-.25,5.68.73,1.89.25,4.29.12,6.46-.07,1.17.97,3.15-1.64,3.02.07.35.03.92.22,1.01,2.15,1,2.51,2.84,2.56,4.95.1,4.08,1.74,7.57,4.21,10.75.51.65.82,1.46,1.21,2.21.38.75.66,1.56,1.17,2.21.11.15.96-.3,1.48-.43.1-.03.34.12.37.23.92,4.09,4.98,4.31,7.68,6.19,2.48,1.72,5.73.67,8.36,2.13.36.2,1.23-.39,1.81-.71.71-.39,4.5-.92,5.32-.77,1.19.21,2.41.35,3.62.45,1.58.14,3.39-.21,4.69.45,1.3.66,2.46-.59,3.83.52,1.26,1.02,3.46,1.53,4.62-.88.01-.02,1.32.3,1.56.73.4.71.42,1.63.62,2.45.06.27.31.73.28.74-1.63.86-3.54,2.66-4.87,2.3-2.44-.66-4.51.82-6.77.25-.61-.15-1.67-.07-1.97.33-2.03,2.69-4.84,1.61-7.41,1.73-.85-1.62-1.64-.3-2.38.09-3.43,1.78-6.85,3.58-10.24,5.45-.74.41-1.94,1.2-1.87,1.67.3,2.12-1.83,2.02-2.41,2.09-2.78.32-4.19,2.36-6.01,3.96-2.5,2.19-4.89,4.65-7.75,6.23-1.64.91-1.28,3.53-3.36,3.35-2.03-.17-2.83.59-2.26,2.4.71,2.24-2.09,1.66-2.14,2.83-.07,1.68-.08,2.96-2.3,2.44-.16-.04-.46-.05-.51.04-.81,1.42-1.26,3.42-2.47,4.16-1.52.93-2.23,1.67-2.52,3.48-.23,1.44-1.24,2.69-2.86,3.7-1.93,1.2-3.28,3.49-4.58,5.51-.93,1.46-.63,3.77-2.16,4.76-1.89,1.22-1.79,3.44-3.15,4.92-1.22,1.32-1.77,3.23-2.77,4.79-2.51,3.91-4.68,9.92-5.02,14.22-.13,1.67-.16,1.59-2.63,2.37-.62.2-1.51,1.55-1.43,1.65.73.86,1.13,1.47-.47,1.46-.78,0-1.94.46-1.99-1.01-.04-.9-.05-1.81,0-2.72.06-1.01-.06-1.7-1.36-1.77-.3-.01-.84-1.07-.77-1.58.15-1.13,1.21-2.85.83-3.21-1.8-1.73.64-1.9.78-2.8.31-2.09.49-4.2.71-6.3-.07,0-.14-.01-.21-.02ZM372.24,59.3c0-.54.14-1.14-.04-1.61-.2-.52-.71-.93-1.08-1.39-.35.3-.97.56-1.01.9-.31,2.72-3.83,3.6-3.68,6.54-2.38,1.16-3.71,3.42-5.24,5.36-2.24,2.84-4.85,5.4-6.67,8.6-.6,1.06-.7,3.49-3.15,2.51-1.37,1.54-3.02,2.93-4.01,4.69-.5.88-.47,1.5-1.72,2.01-1.84.75-3.43,2.31-4.88,3.77-1.52,1.53-5.84,5.38-7.65,6.41-1.03.59-2.31,1.06-2.95,1.95-1.55,2.15-4.03,2.58-6.05,3.83-2.42,1.51-5.03,1.23-7.63,1.26-1.27.01-2.64-.3-3.77.1-.96.34-2.14,1.4-2.3,2.3-.22,1.32,1.24.75,2.02.86.53.07,1.27-.22,1.6.05,2.72,2.23,5.82,4.2,7.93,6.93,3.26,4.23,6.91,8.17,9.81,12.71,1.11,1.74,1.59,3.43,1.87,5.31.04.23-.2.51-.31.77,3.01.54,1.81,3.55,2.99,5.2.96,1.34,1.66,2.93,2.16,4.51.32.99,0,2.16.08,3.24.06.85,0,2.11.51,2.45,2.08,1.41,1.6,3.42,1.65,5.34.04,1.56-.07,3.03,1.01,4.49.92,1.24-.88,2.63-.11,4.55,1.28,3.17,1.66,6.79,1.28,10.34-.04.34-.02.73.11,1.03.06.14.62.24.71.14,1.56-1.66,4.16-2.38,4.6-5.05.13-.79-.51-2.09.81-2.18,2.41-.15,1.27-2.54,2.41-3.49.42-.35.28-1.81.53-1.84,2.88-.44,2.93-3,3.87-4.9.61-1.23,1.13.26,1.4.14.67-.32,1.18-.96,1.76-1.47l1.41-3.39c.52-1.03,1.57,2.14,1.98-.27.2-1.15.66-2.25,1.07-3.35.17-.47.49-.89.8-1.3.21-.29.5-.52.76-.77,1.64,1.66,1.73.58,1.72-.93,0-.43.29-1.12.63-1.26.78-.31,1.67-.35,2.51-.5-.16-.63-1.53-.97-.28-1.95,1.25-.98,2.13-2.36,4.11-2.01.71.13.76-.97,0-2.18-.13-.21-.23-.7-.17-.73.29-.16.64-.24.97-.27.88-.07,2.26.22,2.55-.22.52-.77.41-1.99.5-3.02.08-.9.29-1.36,1.14-.53.52.51.95,1.27,1.56,1.46.5.16,1.28-.26,1.81-.61.48-.31,1.18-.67.35-1.54-.94-.99-.67-1.49.74-2.17,1.94-.94,3.56-2.57,5.26-3.98.33-.28.39-.88.58-1.34.18.47.36.94.53,1.41.21.58.42,1.17.62,1.75.15-.48.48-.98.43-1.43-.16-1.49.53-1.79,1.86-1.8.87,0,2.31.79,2.51-1.01.16-1.46-1.36-.76-1.8-1.34-1.2-1.57-2.67-2.25-4.65-1.99-.35.04-.93-.4-1.12-.76-1.08-2.03-3.42-2.65-4.81-4.4-1.31-1.66-2.46-3.46-4.4-4.71-1.29-.83-2-2.7-2.73-4.22-.58-1.19-.54-2.73-1.23-3.82-1.66-2.6-2.18-5.38-2.08-8.39.09-2.61.19-5.2-1.63-7.49-.5-.62-.49-2.05-.12-2.84.32-.71.54-.89-.03-1.62-1.06-1.36.17-2.48.57-3.77.33-1.08-.63-2.54-.89-3.86-.04-.2.65-.7,1.07-.79.89-.19,1.45-.79.36-1.03-2.05-.45-1.81-1.03-.83-2.44,1.27-1.85-.59-3.7-.44-5.31.17-1.81,2.69-3.2,1.96-5.64Z"/><path class="cls-3" d="M393.25,122.37c-1.2-1.57-2.67-2.25-4.65-1.99-.35.04-.93-.4-1.12-.76-1.08-2.03-3.42-2.65-4.81-4.4-1.31-1.66-2.46-3.46-4.4-4.71-1.29-.83-2-2.7-2.73-4.22-.58-1.19-.54-2.73-1.23-3.82-1.66-2.6-2.18-5.38-2.08-8.39.09-2.61.19-5.2-1.63-7.49-.5-.62-.49-2.05-.12-2.84.32-.71.54-.89-.03-1.62-1.06-1.36.17-2.48.57-3.77.33-1.08-.63-2.54-.89-3.86-.04-.2.66-.7,1.07-.79.89-.19,1.45-.79.36-1.03-2.05-.45-1.81-1.03-.83-2.44,1.27-1.85-.59-3.7-.44-5.31.17-1.81,2.69-3.2,1.96-5.64,0-.54.14-1.14-.04-1.61-.2-.52-.71-.93-1.08-1.39-.35.3-.97.56-1.01.9-.31,2.72-3.83,3.6-3.68,6.54-2.38,1.17-3.71,3.42-5.24,5.36-2.24,2.84-4.85,5.4-6.67,8.6-.6,1.06-.7,3.49-3.15,2.51-1.37,1.54-3.02,2.93-4.01,4.69-.5.88-.47,1.5-1.72,2.01-1.84.75-3.43,2.31-4.88,3.77-1.52,1.53-5.84,5.38-7.65,6.41-1.03.58-2.31,1.06-2.95,1.95-1.55,2.15-4.03,2.57-6.05,3.83-2.42,1.51-5.03,1.23-7.63,1.26-1.27.01-2.64-.3-3.77.1-.96.34-2.14,1.4-2.3,2.3-.22,1.32,1.24.75,2.02.86.53.07,1.27-.22,1.6.05,2.72,2.23,5.82,4.2,7.93,6.93,3.26,4.23,6.91,8.17,9.81,12.71,1.11,1.74,1.59,3.43,1.87,5.31.04.23-.2.51-.31.76,3.01.54,1.81,3.55,2.99,5.2.96,1.34,1.66,2.93,2.16,4.51.32.99,0,2.16.08,3.24.06.85,0,2.11.51,2.45,2.08,1.41,1.6,3.42,1.65,5.34.04,1.56-.07,3.03,1.01,4.49.92,1.24-.88,2.63-.11,4.55,1.28,3.17,1.66,6.79,1.28,10.34-.04.34-.02.73.11,1.03.06.14.62.24.71.14,1.56-1.66,4.16-2.38,4.6-5.05.13-.79-.51-2.09.81-2.18,2.41-.15,1.27-2.54,2.41-3.49.42-.35.28-1.81.53-1.84,2.88-.44,2.93-3,3.87-4.9.61-1.23,1.13.26,1.4.14.67-.32,1.18-.96,1.76-1.47l1.41-3.39c.52-1.03,1.57,2.14,1.98-.27.2-1.15.66-2.25,1.07-3.35.17-.47.49-.89.8-1.3.21-.29.5-.52.76-.77,1.64,1.66,1.73.58,1.72-.93,0-.43.29-1.12.63-1.26.78-.31,1.67-.35,2.51-.5-.16-.63-1.53-.97-.28-1.95,1.25-.98,2.13-2.36,4.11-2.01.71.13.76-.97,0-2.18-.13-.21-.23-.69-.16-.73.29-.16.63-.24.97-.27.88-.07,2.26.22,2.55-.22.52-.77.41-1.99.5-3.02.08-.9.29-1.36,1.14-.53.52.51.95,1.27,1.56,1.46.5.16,1.28-.26,1.81-.61.48-.32,1.18-.67.35-1.54-.94-.99-.67-1.49.74-2.17,1.94-.94,3.56-2.57,5.26-3.98.33-.28.39-.89.58-1.34.18.47.36.94.53,1.41.21.58.42,1.17.62,1.75.15-.48.48-.98.43-1.43-.16-1.49.53-1.79,1.86-1.8.87,0,2.31.79,2.51-1.01.16-1.46-1.36-.76-1.8-1.34Z"/><path class="cls-3" d="M187.43,243.28c0,3.97,2.67,6.8,1.13,10.95-.62,1.65-1.65,2.97-2.06,4.68-.55,2.3-.65,4.79-1.05,7.12-.58,3.42-1.42,7.78-4.12,10.26-1.34,1.23-1.94,1.11-2.39,2.71-.29,1.06.83,2.16-.95,2.55-.53,4.99-4.83,9.07-8.58,12-2.08,1.63-4.44,3-6.7,4.37-.7.42-1.49,1.24-2.37,1.13-1.17-.14-1.22-1.83-2.08-1.99.11.02-2.22,3.89-2.86,4.23-1.83.98-4.32.43-6.31.99-4.94,1.39-10.76,5.13-15.23,1,1.86.16,3.69.14,5.55.13-2.68-1.17-5.2-2.25-8.14-1.36-1.49.45-2.52,1.59-4.15,1.91-1.49.29-2.96.11-4.43-.14-6.28-1.05-12.51-3.69-17.93-6.94-2.48-1.48-4.93-3.02-7.13-4.9-2.11-1.81-3.42-4.74-5.48-6.38-1.82-1.44-3.75-.15-5.8-.73-2.12-.6-2.6-2.09-3.16-4.09-.95-3.39-1.53-7.12-2.08-10.6-.37-2.35.08-4.76-.32-7.06-.37-2.13-2.67-3.38-2.49-5.21.18-1.9,1.42-.5.55-2.67-.38-.95-1.55-1.67-1.96-2.72-.9-2.29,1-4.33.34-6.2-.41-1.16-1.89-1.42-2.16-3.11-.16-.98.23-1.98.25-2.96.04-2.03-1.7-6.08,1.03-7.18,2.69-1.08,3.75,2.67,5.88,3.16.53-6.12,1.65-12.99,5.2-18.35,1.09-1.64,3.6-5.82,5.32-6.74.49-.26,8.96-6.35,9.91-7.28,2.4-2.36,5.55-3.2,7.95-5.55,3.78-3.7,10.48-9.95,16.23-10.22,1.21-.06,2.27.39,3.46.23,1.55-.21,2.75-.81,4.45-.69,2.84.21,4.86,1.87,7.77,1.98,2.74.1,2.65-.06,4.08,2.09,1.73,2.6,3.32.94,5.83,1.95,1.19.48,1.5,1.53,2.45,2.23.92.68,2.06.79,3.11,1.19,2.56.98,4.81,2.56,6.9,4.32,2.08,1.76,3.97,3.74,5.98,5.58,2.34,2.14,2.81,4.05,4.51,6.59,3.18,4.77,7.28,8.37,9.51,13.83,1.07,2.63,1.77,5.4,2.04,8.23.24,2.43,1.13,5.45.47,7.65Z"/><path class="cls-3" d="M307.03,221.43c.62,2.02-1.54,3.54-1.05,5.53.49,1.96.97,4.3.35,6.1-2.29,6.65-1.93,13.91-4.85,20.35-.45,1-1.62,1.66-2.4,2.53-.33.37-.43.93-.74,1.31-4.05,4.91-8.17,9.75-12.14,14.71-1.9,2.37-5.94,2.47-6.47,6.22-2.81,1.03-5.55,2.58-8.44,2.94-2.71.34-4.97,4.26-8.11,1.18-2.62,1.82-5.71.8-8.43,1.37-5.54,1.16-9.97-1.36-14.74-2.97-3.62-1.22-7.25-2.39-10.85-3.65-1.09-.38-2.68-.27-2.58-2.19.02-.42-.39-.87-.6-1.3l-4.9-3.28c-.89-.78-1.99-1.42-2.62-2.38-.76-1.17-.86-3.48-1.72-3.73-1.93-.57-2.34-1.83-3.11-3.28-.36-.67-1.95-.6-2.9-1.05-.62-.3-1.63-1.23-1.55-1.37,2.52-4.5-3.17-7.26-2.35-11.35-3.92-2.75-1.89-6.94-2.33-10.44-.47-3.78.02-7.68.04-11.52.02-2.66-.03-5.33-.08-7.99,0-.48-.3-1.34-.22-1.37,4.3-1.53,1.27-7.59,5.61-9.07.23-.08.4-.49.48-.78,1.82-6.6,2.47-7.84,6.24-11.74.22-.23.58-.45.62-.71.69-4.87,4.21-6.35,8.35-7.55,1.72-.5,3.14-2.19,4.59-3.46,4.75-4.15,9.58-8.11,15.82-9.91,2.7-.78,5.2-3.17,8.06-2.32,4.4,1.31,9.21.1,13.42,3.32,3.65,2.79,8.73,3.67,12.46,6.39,7.55,5.5,15.59,10.64,20.51,19.03.4.69,1.25,1.43,1.15,2.04-.61,4,2.3,6.87,3.13,10.37.8,3.34,1.57,6.68,2.35,10.03Z"/><path class="cls-1" d="M187.43,243.28c0,3.97,2.67,6.8,1.13,10.95-.62,1.65-1.65,2.97-2.06,4.68-.55,2.3-.65,4.79-1.05,7.12-.58,3.42-1.42,7.78-4.12,10.26-1.34,1.23-1.94,1.11-2.39,2.71-.29,1.06.83,2.16-.95,2.55-.53,4.99-4.83,9.07-8.58,12-2.08,1.63-4.44,3-6.7,4.37-.7.42-1.49,1.24-2.37,1.13-1.17-.14-1.22-1.83-2.08-1.99.11.02-2.22,3.89-2.86,4.23-1.83.98-4.32.43-6.31.99-4.94,1.39-10.76,5.13-15.23,1,1.86.16,3.69.14,5.55.13-2.68-1.17-5.2-2.25-8.14-1.36-1.49.45-2.52,1.59-4.15,1.91-1.49.29-2.96.11-4.43-.14-6.28-1.05-12.51-3.69-17.93-6.94-2.48-1.48-4.93-3.02-7.13-4.9-2.11-1.81-3.42-4.74-5.48-6.38-1.82-1.44-3.75-.15-5.8-.73-2.12-.6-2.6-2.09-3.16-4.09-.95-3.39-1.53-7.12-2.08-10.6-.37-2.35.08-4.76-.32-7.06-.37-2.13-2.67-3.38-2.49-5.21.18-1.9,1.42-.5.55-2.67-.38-.95-1.55-1.67-1.96-2.72-.9-2.29,1-4.33.34-6.2-.41-1.16-1.89-1.42-2.16-3.11-.16-.98.23-1.98.25-2.96.04-2.03-1.7-6.08,1.03-7.18,2.69-1.08,3.75,2.67,5.88,3.16.53-6.12.85-13.23,4.4-18.59,1.09-1.64,4.29-7.38,6.01-8.3.49-.26,6.67-5.28,7.62-6.21,2.4-2.36,7.05-4.78,9.46-7.13,3.78-3.7,11.38-7.64,17.13-7.9,1.21-.06,2.27.39,3.46.23,1.55-.21,2.75-.81,4.45-.69,2.84.21,4.86,1.87,7.77,1.98,2.74.1,2.65-.06,4.08,2.09,1.73,2.6,3.32.94,5.83,1.95,1.19.48,1.5,1.53,2.45,2.23.92.68,2.06.79,3.11,1.19,2.56.98,4.81,2.56,6.9,4.32,2.08,1.76,3.97,3.74,5.98,5.58,2.34,2.14,2.81,4.05,4.51,6.59,3.18,4.77,7.28,8.37,9.51,13.83,1.07,2.63,1.77,5.4,2.04,8.23.24,2.43,1.13,5.45.47,7.65ZM103.4,276.99c.86,3.17,1.84,6.26,2.21,9.54.33,2.91.52,4.32,3.43,5.16,6.34,1.84,11.71,4.71,18.47,5.38,3.18.32,6.64.81,9.83.41,3.29-.41,5.77-2.46,9.15-2.29,3.32.17,5.39.1,8.17-1.98,1.02-.76,1.28-1.13,2.35-1.28.29-.04.3,1.18.58,1.26.72.21,2.04-3.38,2.75-3.76.86-.46,2.1-.11,3.06-.52,2.27-.97,3.48-3.64,5.17-5.33,2.29-2.27,3.15-4.08,4.58-7,1.54-3.17,3.61-5.97,4.95-9.27,4.91-12.16,5.09-26.87-.61-38.71-1.44-2.99-3.1-5.89-4.88-8.69-1.61-2.53-3.81-3.95-5.81-6.1-2-2.15-3.73-3.61-6.07-5.38-2.21-1.68-3.83-3.71-6.43-4.87-3.12-1.39-6.03-2.25-9.07-3.91-2.77-1.51-5.81-2.54-8.94-2.98-3.18-.44-7.12-.58-10.24.29-3.08.86-5.98,1.01-8.4,3.01-2.71,2.24-4.96,3.66-8.66,5.72-2.62,1.46-5.43,4-7.94,5.45-2.73,1.59-4.87,4.28-6.31,8.82-.63,1.98.45,4.29,1.01,5.21,2.36-4.11,5.53-1.97,6.97,1.33,1.36,3.1,1.84,6.44,2.68,9.7,1.71,6.64,2.84,13.33,2.93,20.2.05,3.58.62,6.68,1.6,10.1.61,2.15,2.28,5.8.84,8-3.03,4.66-7.39-5.48-7.39,2.48Z"/><path class="cls-1" d="M307.03,221.43c.62,2.02-1.54,3.54-1.05,5.53.49,1.96.97,4.3.35,6.1-2.29,6.65-1.93,13.91-4.85,20.35-.45,1-1.62,1.66-2.4,2.53-.33.37-.43.93-.74,1.31-4.05,4.91-8.17,9.75-12.14,14.71-1.9,2.37-5.94,2.47-6.47,6.22-2.81,1.03-5.55,2.58-8.44,2.94-2.71.34-4.97,4.26-8.11,1.18-2.62,1.82-5.71.8-8.43,1.37-5.54,1.16-9.97-1.36-14.74-2.97-3.62-1.22-7.25-2.39-10.85-3.65-1.09-.38-2.68-.27-2.58-2.19.02-.42-.39-.87-.6-1.3l-4.9-3.28c-.89-.78-1.99-1.42-2.62-2.38-.76-1.17-.86-3.48-1.72-3.73-1.93-.57-2.34-1.83-3.11-3.28-.36-.67-1.95-.6-2.9-1.05-.62-.3-1.63-1.23-1.55-1.37,2.52-4.5-3.17-7.26-2.35-11.35-3.92-2.75-1.89-6.94-2.33-10.44-.47-3.78.02-7.68.04-11.52.02-2.66-.03-5.33-.08-7.99,0-.48-.3-1.34-.22-1.37,4.3-1.53,1.27-7.59,5.61-9.07.23-.08.4-.49.48-.78,1.82-6.6,2.47-7.84,6.24-11.74.22-.23.58-.45.62-.71.69-4.87,4.21-6.35,8.35-7.55,1.72-.5,3.14-2.19,4.59-3.46,4.75-4.15,9.58-8.11,15.82-9.91,2.7-.78,5.2-3.17,8.06-2.32,4.4,1.31,9.21.1,13.42,3.32,3.65,2.79,8.73,3.67,12.46,6.39,7.55,5.5,15.59,10.64,20.51,19.03.4.69,1.25,1.43,1.15,2.04-.61,4,2.3,6.87,3.13,10.37.8,3.34,1.57,6.68,2.35,10.03ZM298.99,223.98c-.42-4.84-.77-8.96-2.38-13.58-1.38-3.96-1.77-7.26-4.34-10.54-2.63,2.8-11.74-11.1-14.62-11.92-1.17-.34-1.86.55-3.05.17-1.25-.39-2.51-2.57-3.59-3.36-1.65-1.21-4.75-1.48-4.91-3.96-4.7-1.96-8.84-3.86-13.89-1.95-4.19,1.58-8.54,3.07-12.61,4.93-2.29,1.05-4.32,2.55-6.59,3.61-.67.31-2.89.81-3.24,1.34-.17.25.17,1.11.06,1.47-.33,1.1-.33,3.71-1.58,4.41-1.12.63-2.22-.43-3.37-.74.02.65.84,2.38.81,2.64-.1.76-.69.87-.89,1.6-.54,2.03.71,3.06-1.9,2.57-.88-.17-.5-1.02-1.54-.59-.89.37,2.39,2.04,2.19,2.83-.67,2.56-.13,5.08.38,7.62.59,2.91,1.38,5.81,1.56,8.79.04.69,3.92,19.42,4.49,25.29.31,3.17.24,6.38.62,9.55.36,2.94,2.21,5.87,2.15,8.77-.08,3.59-1.64,4.11,2.13,5.88,2.51,1.18,1.52,2.24,3.95,3.57,2.25,1.22,4.62,2.28,7.21,2.47,1.23.09,2.72-.44,3.87-.19,1.12.24,2.09,1.11,3.22,1.45,12.46,3.74,25.32-6.34,32.33-15.45,3.82-4.97,8.05-9.52,10.16-15.52,2.39-6.79,3.53-13.97,3.35-21.16Z"/><path class="cls-1" d="M186.37,320.67c-.11.9-.86,2.21-.92,2.75-.15,1.31-.29.66,1.27,2.02,2.4,2.09,3.55,5.13,5,7.89.76,1.45,1.44,2.6,2.59,3.77.05.05,1.93,2.08,1.99,2.11,1.48.83,4.49-.05,6.14-1.04,2.78-1.68,3.82-5.78,4.87-8.68,1.29-3.57,2.28-7.24,3.01-10.97.74-3.78,1.69-7.52,2.4-11.31.23-1.23-.09-4.91.49-5.81.54-.83,1.78-1.04,2.61-1.49.36.65.64,1.33.83,2.05-.12.61-.23,1.22-.35,1.83.87,1.73.65.55,1.86,1.27,1.62.96,1.33,1.06,1.16,3.06-.66,7.72-3,15.15-4.83,22.64-.92,3.74-1.58,6.61-3.85,9.75-1.36,1.88-2.14,4.21-4.58,4.51-.53-.29-1.04-.6-1.55-.94-.5.44-1.02.86-1.55,1.27-1.29.71-2.22.88-3.58.25-1.45-.67-1.69-1.93-3.32-2.01-1.02-.05-1.44.71-2.75.4,1.85-2.27-.48-2.05-1.88-3.04-2.44-1.74-2.78-4.79-5.03-6.58-2.54-2.02-2.14-5.11-3.74-7.71-1.02-1.66-1.41-2.12-1.26-4.22.11-1.54.15-2.44-.05-4.15,1.7,0,5.14.2,5.03,2.37Z"/></g></svg>